<svg xmlns="http://www.w3.org/2000/svg" height="48" viewBox="0 96 960 960" width="48"><path d="M236.352 856q-14.852 0-25.602-10.633Q200 834.735 200 819.852q0-14.352 10.633-25.102Q221.265 784 236.148 784q14.352 0 25.102 10.736Q272 805.471 272 819.648q0 14.852-10.736 25.602Q250.529 856 236.352 856Zm243.794 0Q465.5 856 455 845.367q-10.5-10.632-10.5-25.515 0-14.352 10.646-25.102t25-10.75q14.354 0 25.354 10.736 11 10.735 11 24.912 0 14.852-10.854 25.602t-25.5 10.75Zm244.206 0q-14.852 0-25.602-10.633Q688 834.735 688 819.852q0-14.352 10.633-25.102Q709.265 784 724.148 784q14.352 0 25.102 10.736Q760 805.471 760 819.648q0 14.852-10.736 25.602Q738.529 856 724.352 856Zm-488-244.5q-14.852 0-25.602-10.646t-10.75-25q0-14.354 10.633-25.354 10.632-11 25.515-11 14.352 0 25.102 10.854t10.75 25.5Q272 590.5 261.264 601q-10.735 10.5-24.912 10.5Zm243.794 0q-14.646 0-25.146-10.646t-10.5-25q0-14.354 10.646-25.354t25-11q14.354 0 25.354 10.854t11 25.5q0 14.646-10.854 25.146t-25.5 10.5Zm244.206 0q-14.852 0-25.602-10.646t-10.75-25q0-14.354 10.633-25.354 10.632-11 25.515-11 14.352 0 25.102 10.854t10.75 25.5Q760 590.5 749.264 601q-10.735 10.5-24.912 10.5Zm-488-243.5q-14.852 0-25.602-10.633Q200 346.735 200 331.852q0-14.352 10.633-25.102Q221.265 296 236.148 296q14.352 0 25.102 10.736Q272 317.471 272 331.648q0 14.852-10.736 25.602Q250.529 368 236.352 368Zm243.794 0Q465.5 368 455 357.367q-10.5-10.632-10.5-25.515 0-14.352 10.646-25.102t25-10.75q14.354 0 25.354 10.736 11 10.735 11 24.912 0 14.852-10.854 25.602t-25.5 10.75Zm244.206 0q-14.852 0-25.602-10.633Q688 346.735 688 331.852q0-14.352 10.633-25.102Q709.265 296 724.148 296q14.352 0 25.102 10.736Q760 317.471 760 331.648q0 14.852-10.736 25.602Q738.529 368 724.352 368Z"/></svg>