<svg xmlns="http://www.w3.org/2000/svg" height="48" viewBox="0 96 960 960" width="48"><path d="M479.911 820q-6.961 0-12.436-5.563Q462 808.873 462 801.911q0-6.961 5.563-12.936Q473.127 783 480.089 783q6.961 0 12.436 5.873T498 802.142q0 6.983-5.563 12.42Q486.873 820 479.911 820Zm0-226q-6.961 0-12.436-5.563Q462 582.873 462 575.911q0-6.961 5.563-12.436Q473.127 558 480.089 558q6.961 0 12.436 5.563Q498 569.127 498 576.089q0 6.961-5.563 12.436Q486.873 594 479.911 594Zm0-225q-6.961 0-12.436-5.873T462 349.858q0-6.983 5.563-12.42Q473.127 332 480.089 332q6.961 0 12.436 5.563Q498 343.127 498 350.089q0 6.961-5.563 12.936Q486.873 369 479.911 369Z"/></svg>