<svg id="Object" xmlns="http://www.w3.org/2000/svg" viewBox="0 0 1146 874.01"><defs><style>.cls-1{fill:#8d7561;}.cls-2{fill:#59414b;}.cls-3{fill:#84b3b8;}.cls-4{fill:#a54952;}.cls-5{fill:none;stroke:#f7931e;stroke-width:12px;}</style></defs><title>retrotodo</title><path class="cls-1" d="M41.13,844.55a3.87,3.87,0,0,0,1.22,2.35,2,2,0,0,0,1.26.48,1.77,1.77,0,0,0,.67-.13L413.87,702.42c1.32-.53,2.11-2.45,1.8-4.38l-.43-2.62a3.87,3.87,0,0,0-1.22-2.35,1.87,1.87,0,0,0-1.93-.35L42.51,837.55c-1.33.53-2.12,2.46-1.81,4.39Z" transform="translate(-23 -122.99)"/><path class="cls-1" d="M1129.19,355.28l-.43-2.62h0a3.85,3.85,0,0,0-1.2-2.33,1.87,1.87,0,0,0-2-.37L756,494.8c-1.33.52-2.13,2.44-1.81,4.38l.43,2.63a3.85,3.85,0,0,0,1.2,2.32,2,2,0,0,0,1.27.5,1.82,1.82,0,0,0,.68-.13l369.57-144.83C1128.71,359.15,1129.51,357.22,1129.19,355.28Z" transform="translate(-23 -122.99)"/><path class="cls-1" d="M590.57,534.65a2,2,0,0,0,1.27.49,1.72,1.72,0,0,0,.66-.13l86.39-33.85c1.34-.52,2.13-2.44,1.82-4.38l-.43-2.63a3.83,3.83,0,0,0-1.21-2.33,1.87,1.87,0,0,0-1.94-.37l-86.38,33.86c-1.34.52-2.14,2.44-1.82,4.38l.43,2.63A3.86,3.86,0,0,0,590.57,534.65Z" transform="translate(-23 -122.99)"/><path class="cls-1" d="M114.41,886.77a3.9,3.9,0,0,0-1.2-2.33,1.91,1.91,0,0,0-1.94-.36l-86.4,33.86c-1.32.53-2.12,2.45-1.8,4.39l.43,2.61a3.86,3.86,0,0,0,1.21,2.35,2,2,0,0,0,1.26.48,1.79,1.79,0,0,0,.68-.13L113,893.78c1.34-.51,2.13-2.44,1.81-4.38Z" transform="translate(-23 -122.99)"/><path class="cls-1" d="M823.1,954.94a3.85,3.85,0,0,0-1.2-2.34,1.87,1.87,0,0,0-1.94-.36l-86.4,33.86c-1.33.52-2.12,2.45-1.8,4.38l.43,2.62a3.8,3.8,0,0,0,1.21,2.34,2,2,0,0,0,1.26.49,2,2,0,0,0,.67-.13l86.39-33.86c1.33-.52,2.13-2.44,1.81-4.38Z" transform="translate(-23 -122.99)"/><path class="cls-1" d="M615.69,920.69a3.83,3.83,0,0,0-1.21-2.34,1.85,1.85,0,0,0-1.94-.36L570.1,934.62c-1.34.52-2.13,2.44-1.81,4.39l.43,2.62a3.83,3.83,0,0,0,1.21,2.34,2,2,0,0,0,1.26.49,2,2,0,0,0,.67-.13l42.45-16.64c1.33-.51,2.13-2.44,1.81-4.38Z" transform="translate(-23 -122.99)"/><path class="cls-1" d="M879.34,868.13a3.81,3.81,0,0,0-1.21-2.33,1.85,1.85,0,0,0-1.94-.37l-42.44,16.64c-1.34.52-2.13,2.44-1.82,4.38l.43,2.63a3.83,3.83,0,0,0,1.21,2.33,2,2,0,0,0,1.27.5,1.79,1.79,0,0,0,.67-.14L878,875.14c1.34-.52,2.13-2.44,1.82-4.39Z" transform="translate(-23 -122.99)"/><path class="cls-1" d="M950.66,327.78l.43,2.62a3.75,3.75,0,0,0,1.2,2.33,2,2,0,0,0,1.27.5,1.77,1.77,0,0,0,.67-.13l42.46-16.64c1.32-.52,2.11-2.45,1.8-4.37l-.43-2.63a3.87,3.87,0,0,0-1.22-2.34,1.88,1.88,0,0,0-1.93-.36L952.47,323.4C951.15,323.91,950.34,325.87,950.66,327.78Z" transform="translate(-23 -122.99)"/><path class="cls-1" d="M110.65,868.79a1.87,1.87,0,0,0-1.94-.36L66.26,885.07c-1.33.51-2.13,2.44-1.79,4.53a3.81,3.81,0,0,0,1.21,2.33,2,2,0,0,0,1.27.5,1.77,1.77,0,0,0,.67-.13l42.44-16.64c1.34-.51,2.13-2.44,1.79-4.53A3.88,3.88,0,0,0,110.65,868.79Z" transform="translate(-23 -122.99)"/><path class="cls-1" d="M497.34,890.92l-.42-2.63a3.91,3.91,0,0,0-1.21-2.33,1.87,1.87,0,0,0-1.94-.36l-86.4,33.86c-1.32.53-2.12,2.45-1.8,4.38l.43,2.63a3.81,3.81,0,0,0,1.21,2.33,2,2,0,0,0,1.26.49,2,2,0,0,0,.68-.13l86.39-33.86C496.87,894.77,497.66,892.85,497.34,890.92Z" transform="translate(-23 -122.99)"/><path class="cls-1" d="M607.25,338.56l.43,2.63a3.86,3.86,0,0,0,1.21,2.33,2,2,0,0,0,1.27.49,1.77,1.77,0,0,0,.67-.13l115.68-45.34c1.33-.51,2.13-2.44,1.81-4.38l-.43-2.62a3.85,3.85,0,0,0-1.2-2.33,1.87,1.87,0,0,0-1.94-.37L609.07,334.18C607.73,334.7,606.94,336.62,607.25,338.56Z" transform="translate(-23 -122.99)"/><path class="cls-1" d="M523.46,280.57,523,278a3.8,3.8,0,0,0-1.21-2.34,1.83,1.83,0,0,0-1.94-.36L433.5,309.1c-1.33.52-2.13,2.44-1.81,4.39l.43,2.62a3.8,3.8,0,0,0,1.2,2.33,2,2,0,0,0,1.27.5,2,2,0,0,0,.67-.13L521.66,285C523,284.42,523.78,282.49,523.46,280.57Z" transform="translate(-23 -122.99)"/><path class="cls-1" d="M508.15,371.38a1.89,1.89,0,0,0-1.94-.36L400.29,412.53c-1.33.52-2.13,2.44-1.81,4.38l.43,2.63a3.88,3.88,0,0,0,1.2,2.33,2,2,0,0,0,1.27.5,2,2,0,0,0,.68-.13L508,380.73c1.34-.52,2.13-2.44,1.81-4.39l-.43-2.62A3.85,3.85,0,0,0,508.15,371.38Z" transform="translate(-23 -122.99)"/><path class="cls-1" d="M551.12,344.79l.43,2.63a3.9,3.9,0,0,0,1.2,2.33,2,2,0,0,0,1.27.49,1.82,1.82,0,0,0,.68-.13L660.61,308.6c1.34-.51,2.13-2.44,1.81-4.38l-.43-2.63a3.85,3.85,0,0,0-1.2-2.33,1.89,1.89,0,0,0-1.94-.36L552.93,340.41C551.62,340.92,550.81,342.88,551.12,344.79Z" transform="translate(-23 -122.99)"/><path class="cls-1" d="M468.75,286a3.86,3.86,0,0,0,1.21,2.33,2,2,0,0,0,1.27.49,1.72,1.72,0,0,0,.66-.13l105.92-41.51c1.34-.52,2.13-2.44,1.82-4.38l-.43-2.62a3.81,3.81,0,0,0-1.21-2.33,1.83,1.83,0,0,0-1.94-.37L470.13,279c-1.33.52-2.13,2.44-1.81,4.38Z" transform="translate(-23 -122.99)"/><path class="cls-1" d="M344.12,319.59a3.86,3.86,0,0,0,1.21,2.33,2,2,0,0,0,1.26.49,2,2,0,0,0,.68-.13l89.32-35c1.34-.52,2.14-2.44,1.82-4.38l-.43-2.63a3.86,3.86,0,0,0-1.21-2.33,1.87,1.87,0,0,0-1.94-.36l-89.34,35c-1.32.52-2.12,2.45-1.8,4.38Z" transform="translate(-23 -122.99)"/><path class="cls-1" d="M314,376.53a3.84,3.84,0,0,0,1.22,2.34,1.84,1.84,0,0,0,1.93.36l38.62-15.14c1.33-.51,2.13-2.44,1.81-4.38l-.34-2.09a3.88,3.88,0,0,0-1.2-2.33,1.89,1.89,0,0,0-1.95-.37l-38.63,15.15c-1.32.52-2.11,2.45-1.8,4.38Z" transform="translate(-23 -122.99)"/><path class="cls-1" d="M149.44,620.63a3.81,3.81,0,0,0,1.21,2.33,2,2,0,0,0,1.27.5,1.74,1.74,0,0,0,.66-.14L331.4,553.25c1.33-.53,2.12-2.45,1.8-4.39l-.43-2.62a3.86,3.86,0,0,0-1.21-2.34,1.87,1.87,0,0,0-1.93-.35L150.81,613.62c-1.32.53-2.12,2.45-1.8,4.39Z" transform="translate(-23 -122.99)"/><path class="cls-1" d="M208.09,534.58a3.83,3.83,0,0,0,1.21,2.33,2,2,0,0,0,1.27.49,1.72,1.72,0,0,0,.66-.13l213.35-83.61c1.33-.53,2.12-2.45,1.8-4.38l-.43-2.62a3.83,3.83,0,0,0-1.21-2.34,1.88,1.88,0,0,0-1.93-.36L209.48,527.57c-1.34.51-2.14,2.44-1.82,4.38Z" transform="translate(-23 -122.99)"/><path class="cls-1" d="M261.89,418.89a3.92,3.92,0,0,0,1.22,2.34,2,2,0,0,0,1.26.48,1.77,1.77,0,0,0,.67-.13l164.51-64.47c1.33-.52,2.13-2.44,1.81-4.38l-.43-2.62a3.9,3.9,0,0,0-1.2-2.34,1.86,1.86,0,0,0-2-.36L263.26,411.88c-1.32.53-2.11,2.45-1.8,4.38Z" transform="translate(-23 -122.99)"/><path class="cls-1" d="M578.89,551l.43,2.61a3.83,3.83,0,0,0,1.21,2.35,2,2,0,0,0,1.27.49,2,2,0,0,0,.67-.13L747,491.82c1.34-.52,2.13-2.44,1.82-4.39l-.43-2.62a3.81,3.81,0,0,0-1.21-2.33,1.87,1.87,0,0,0-1.94-.37L580.69,546.59C579.37,547.11,578.58,549,578.89,551Z" transform="translate(-23 -122.99)"/><path class="cls-1" d="M600.37,878.91l-.43-2.62a3.86,3.86,0,0,0-1.21-2.35,1.87,1.87,0,0,0-1.93-.35L432.29,938.06c-1.33.52-2.13,2.44-1.81,4.38l.43,2.63a3.9,3.9,0,0,0,1.2,2.33,2,2,0,0,0,1.27.49,1.74,1.74,0,0,0,.67-.13l164.52-64.47C599.9,882.76,600.69,880.83,600.37,878.91Z" transform="translate(-23 -122.99)"/><path class="cls-1" d="M369.48,392.39a1.87,1.87,0,0,0-1.94-.35l-88.73,34.77c-1.33.53-2.12,2.46-1.8,4.38l.43,2.63a3.83,3.83,0,0,0,1.21,2.34,2,2,0,0,0,1.26.48,1.77,1.77,0,0,0,.67-.13l88.74-34.77c1.33-.53,2.12-2.46,1.8-4.38l-.43-2.63A3.86,3.86,0,0,0,369.48,392.39Z" transform="translate(-23 -122.99)"/><path class="cls-1" d="M71.22,745.88a3.86,3.86,0,0,0,1.22,2.34,1.84,1.84,0,0,0,1.93.36l228-89.35c1.33-.53,2.12-2.45,1.8-4.38l-.43-2.62a3.83,3.83,0,0,0-1.21-2.34,1.88,1.88,0,0,0-1.93-.36l-228,89.35c-1.33.53-2.12,2.45-1.81,4.38Z" transform="translate(-23 -122.99)"/><path class="cls-1" d="M852.72,434.31l.43,2.62a3.86,3.86,0,0,0,1.21,2.34,2,2,0,0,0,1.26.48,1.79,1.79,0,0,0,.68-.13l228-89.34c1.32-.53,2.11-2.46,1.8-4.39l-.43-2.62a3.86,3.86,0,0,0-1.21-2.34,1.89,1.89,0,0,0-1.94-.35l-228,89.34C853.2,430.45,852.4,432.38,852.72,434.31Z" transform="translate(-23 -122.99)"/><path class="cls-1" d="M694.84,353.05l.37,2.16a3.61,3.61,0,0,0,1.13,2.16,1.92,1.92,0,0,0,1.24.48,2,2,0,0,0,.63-.11l198.07-73.66c1.28-.48,2.06-2.35,1.75-4.16l-.37-2.16a3.67,3.67,0,0,0-1.13-2.16,1.86,1.86,0,0,0-1.87-.37L696.6,348.88C695.31,349.35,694.52,351.22,694.84,353.05Z" transform="translate(-23 -122.99)"/><path class="cls-1" d="M171.43,596.25a3.85,3.85,0,0,0,1.2,2.33,2,2,0,0,0,1.27.49,1.74,1.74,0,0,0,.67-.13L505.1,469.41c1.32-.53,2.11-2.45,1.8-4.38l-.43-2.62a3.87,3.87,0,0,0-1.22-2.35,1.87,1.87,0,0,0-1.93-.35L172.81,589.24c-1.33.52-2.13,2.44-1.81,4.38Z" transform="translate(-23 -122.99)"/><path class="cls-1" d="M1011.76,732.76a3.86,3.86,0,0,0-1.21-2.33,1.85,1.85,0,0,0-1.94-.36L829.8,800.14c-1.33.52-2.13,2.44-1.81,4.39l.43,2.62a3.85,3.85,0,0,0,1.2,2.33,2,2,0,0,0,1.27.5,2,2,0,0,0,.68-.13l178.8-70.08c1.34-.52,2.13-2.44,1.81-4.38Z" transform="translate(-23 -122.99)"/><path class="cls-1" d="M857.13,906.26a3.86,3.86,0,0,0-1.21-2.34,1.87,1.87,0,0,0-1.94-.36L640.65,987.17c-1.33.51-2.13,2.44-1.81,4.38l.42,2.62a3.81,3.81,0,0,0,1.21,2.33,2,2,0,0,0,1.27.5,1.77,1.77,0,0,0,.67-.13l213.33-83.61c1.34-.51,2.13-2.44,1.82-4.38Z" transform="translate(-23 -122.99)"/><path class="cls-1" d="M989.77,757.15a3.81,3.81,0,0,0-1.22-2.34,1.87,1.87,0,0,0-1.93-.36L656.11,884c-1.33.52-2.13,2.44-1.81,4.38l.43,2.63a3.85,3.85,0,0,0,1.2,2.33,2,2,0,0,0,1.27.49,1.77,1.77,0,0,0,.67-.13L988.38,764.16c1.34-.52,2.14-2.44,1.82-4.39Z" transform="translate(-23 -122.99)"/><path class="cls-1" d="M426.38,711.41l-.43-2.62a3.83,3.83,0,0,0-1.21-2.34,1.88,1.88,0,0,0-1.93-.36L92.28,835.62c-1.32.52-2.11,2.45-1.8,4.38l.43,2.63A3.81,3.81,0,0,0,92.13,845a1.84,1.84,0,0,0,1.93.36L424.58,715.79C425.91,715.26,426.7,713.34,426.38,711.41Z" transform="translate(-23 -122.99)"/><path class="cls-1" d="M795.87,341l.43,2.63a3.83,3.83,0,0,0,1.21,2.33,2,2,0,0,0,1.27.5,2,2,0,0,0,.67-.13L973.72,278c1.31-.51,2.13-2.48,1.81-4.38L975.1,271a3.9,3.9,0,0,0-1.2-2.33,1.91,1.91,0,0,0-1.95-.37l-174.27,68.3C796.35,337.09,795.55,339,795.87,341Z" transform="translate(-23 -122.99)"/><polygon class="cls-2" points="949.88 295.61 52.8 636.07 53.06 637.43 180.39 694.8 92.22 829.54 987.51 489.77 861.96 433.2 950.36 298.09 949.88 295.61"/><polygon class="cls-3" points="1102.26 311.67 205.19 652.12 205.45 653.49 332.77 710.86 244.61 845.6 1139.9 505.83 1014.35 449.26 1102.75 314.15 1102.26 311.67"/><path class="cls-2" d="M1123.61,426.28l-89.49,34L820.47,541.32,560.86,639.85,337.35,724.67,263,752.89c-11.32,4.29-24.06,7-34.93,13.26a11,11,0,0,1-1.54.58c-3.26,1.24-5.24,6.16-4.35,10.69,1.79,9.19,12,10.75,17.56,13.27l43.66,19.67,70.72,31.87q-1.38-7.28-2.75-14.53L263.2,962.44c-4.1,6.28-.13,16.88,6.07,14.53l88.84-33.72,213.44-81,258.38-98.06L1054.42,679,1128,651.05c11.39-4.32,24-7.17,35-13.27a12.65,12.65,0,0,1,1.55-.59c6.12-2.32,5.72-14.18,0-16.76L1039,563.86q1.38,7.26,2.75,14.53L1091,503.15q15.15-23.14,30.29-46.3c4.56-7,12-14.21,10-24.5-2.1-10.79-14.13-6.21-12,4.62.17.82.33,1.65.49,2.48.53-2.82,1.07-5.64,1.6-8.46l-88.4,135.11c-3.23,4.93-1.82,12.47,2.75,14.52l125.55,56.57V620.43l-88.84,33.72L859,735.15,600.58,833.21l-224.49,85.2-73.61,27.94L279.7,955c-3.5,1.33-9.11,1.92-12.2,4.63a5,5,0,0,1-1.55.59q3,7.26,6.07,14.52L360.18,840c3.23-4.93,1.82-12.47-2.75-14.53L230.11,768.1l4.35,6.07c-.09-.46-.18-.91-.26-1.37q-2.19,5.34-4.36,10.69l89.49-34L533,668.45l259.61-98.53,223.51-84.83,74.35-28.21c11.32-4.3,24.06-7,34.93-13.26a11,11,0,0,1,1.54-.58C1134.65,440.1,1131.37,423.33,1123.61,426.28Z" transform="translate(-23 -122.99)"/><polygon class="cls-4" points="943.19 0 954.65 32.35 980.26 37.53 961.73 62.72 966.11 98.28 943.21 81.5 920.31 98.29 924.67 62.73 906.14 37.55 931.75 32.36 943.19 0"/><polygon class="cls-4" points="1050.2 134.18 1060.09 162.09 1082.18 166.56 1066.2 188.29 1069.98 218.98 1050.21 204.5 1030.45 218.99 1034.22 188.31 1018.23 166.58 1040.33 162.1 1050.2 134.18"/><polygon class="cls-4" points="778.24 1.67 788.13 29.59 810.23 34.06 794.24 55.79 798.02 86.47 778.26 71.99 758.5 86.49 762.26 55.8 746.27 34.08 768.37 29.59 778.24 1.67"/><polygon class="cls-4" points="642.23 56.33 649.95 78.11 667.18 81.59 654.71 98.55 657.66 122.49 642.24 111.19 626.82 122.5 629.76 98.56 617.29 81.61 634.53 78.11 642.23 56.33"/><path class="cls-2" d="M998.12,529,957.05,597.1c-1.89,3.13-1.1,7.29,1.65,8.71l62.82,32.34c4.52,2.33,6.47-7.75,2-10l-62.82-32.35,1.65,8.72,41.07-68.11c3.08-5.11-2.18-12.52-5.29-7.38Z" transform="translate(-23 -122.99)"/><path class="cls-2" d="M934.76,554.58,893.68,622.7c-1.89,3.13-1.1,7.29,1.65,8.71l62.82,32.34c4.52,2.33,6.47-7.75,2-10l-62.82-32.35,1.65,8.72L940,562c3.08-5.1-2.18-12.52-5.28-7.37Z" transform="translate(-23 -122.99)"/><path d="M333.53,636A424.92,424.92,0,0,0,386,682.16a414.17,414.17,0,0,0,51.83,33,25.26,25.26,0,0,0,3.56,1.36c1.06.29,2.33.59,3.8.87.89.22,1.43.57,1.6,1.05q1.14,2-.57,6.3a60.46,60.46,0,0,1-4.83,9.23,88.32,88.32,0,0,1-6.64,9.28q-3.56,4.31-6,5.58-3.22,2.37-15.33-5.07a385.18,385.18,0,0,1-63.63-48.06,644.89,644.89,0,0,1-54.29-57.24q.42,28.2,2.16,55.52t4.72,50.15q.6,5.05-5.19,7.12a24.84,24.84,0,0,1-7.93,1.22,44.47,44.47,0,0,1-9.08-.8,27.45,27.45,0,0,1-8-2.83,9.3,9.3,0,0,1-4.61-4.83A328.32,328.32,0,0,1,257,706.1q-5.24-22.85-9.43-48.49t-7.18-51.33q-3-25.68-4-46.58a269.72,269.72,0,0,1,.09-34.68q1.13-13.77,4.74-15.07a34,34,0,0,1,8.55-1.23,104.23,104.23,0,0,1,11.86,0,68.63,68.63,0,0,1,10.74,1.43q4.89,1.09,5.67,3.25a2.56,2.56,0,0,1-.07,2.05c-.53,1.55-1,2.87-1.42,4a11.22,11.22,0,0,0-.7,3.7q-1.81,10.8-1.88,28.07t1.4,37.64q1.47,20.38,3.95,42.42t5.78,42.38q-1.38-26.29-1.28-52.51t1.65-52.33a275,275,0,0,1,4.66-36.17,168.12,168.12,0,0,1,8.35-29.36,43.38,43.38,0,0,1,10-15.16,38.9,38.9,0,0,1,13.95-8.85q15.91-5.7,28.08,1.9T369.82,504q7.17,15.24,9.23,35.56A135.69,135.69,0,0,1,377.43,579a96.84,96.84,0,0,1-13.78,34.68,52.81,52.81,0,0,1-27.1,21.64A10.16,10.16,0,0,1,333.53,636Zm-37.89-12a35.64,35.64,0,0,1,11-3.51,30.72,30.72,0,0,1,14,1.49q10.48-3.75,16.3-14.79A77.1,77.1,0,0,0,344.78,582a126,126,0,0,0,.59-29.33,133.23,133.23,0,0,0-5.19-27.26q-3.78-12.09-9.55-19T318,502q-8.33,3-13.71,20.79t-7.22,46.56Q296.31,583,296,596.76T295.64,624Z" transform="translate(-23 -122.99)"/><path d="M484.32,684.33q-16.29,5.82-28.87,3.22a42.78,42.78,0,0,1-21.31-10.84,62,62,0,0,1-14.2-21.1,101.24,101.24,0,0,1-7.29-27.42,155.71,155.71,0,0,1-.79-29.75,112.81,112.81,0,0,1,5.34-28.09,82.64,82.64,0,0,1,11.26-22.49q6.94-9.58,16.71-13.08,5.06-1.81,12.86-1.16a55.41,55.41,0,0,1,15.42,3.62,57.61,57.61,0,0,1,13.81,7.64q6.19,4.7,8.28,10.43a47.12,47.12,0,0,1,2,25.68,74.7,74.7,0,0,1-9.8,24.81,86,86,0,0,1-17.32,20.4,66,66,0,0,1-20.62,12.46q4.49,14.63,13,22.93t21.2,3.78q10.84-3.89,17.64-17.27a126,126,0,0,0,10.51-30.75,260.13,260.13,0,0,0,5-35.69q1.32-18.31,1.59-32.22a4.06,4.06,0,0,1,1.74-3.67,5.63,5.63,0,0,1,3.68-1.11,6.46,6.46,0,0,1,3.62,1.54,4.13,4.13,0,0,1,1.44,3.95q-.26,15.12-1.5,35.85a253.65,253.65,0,0,1-5.82,40.84,134.57,134.57,0,0,1-13.48,36.07Q499.52,678.89,484.32,684.33ZM453.71,556.07a48.23,48.23,0,0,0-6.33,14.64,107.58,107.58,0,0,0-3.19,18.8,128.87,128.87,0,0,0-.05,20.71,133,133,0,0,0,3,20Q454.35,627.68,460,620a58.71,58.71,0,0,0,8.63-17.9,73.11,73.11,0,0,0,2.87-21.93,68.53,68.53,0,0,0-4.07-22.49c-1.39-3.82-3.55-5.83-6.48-6S455.58,553,453.71,556.07Z" transform="translate(-23 -122.99)"/><path d="M555.33,443a27.51,27.51,0,0,0-1.4,5.16,23.92,23.92,0,0,0-.18,5.14c0,2.18,0,4.21,0,6.1a57.12,57.12,0,0,0,.33,6,146,146,0,0,1,16.24-4.8c5.29-1.21,9.43-1.41,12.46-.6a5.36,5.36,0,0,1,2.41,1.58,19.59,19.59,0,0,1,2.94,3.61c.93,1.43,1.77,2.82,2.54,4.16a24.77,24.77,0,0,1,1.66,3.47c.7,1.92.69,3.41,0,4.47l-1.09.39a64.56,64.56,0,0,0-18.42,2.73q-9.42,2.76-17.74,5.74,1,17.49,2.83,36.53T562,559.94q2.34,18.24,4.86,34.79T572.38,624q1.49,6.38,3.08,6.81t4.14-4.93a162.8,162.8,0,0,0,8.63-25.2q3.67-14.1,6.43-28.48t4.18-27.88a226.41,226.41,0,0,0,1.44-23.64,5.87,5.87,0,0,1,1.85-3.91,5,5,0,0,1,3.62-1.3,5.43,5.43,0,0,1,3.62,1.55A5.27,5.27,0,0,1,611,520.9q-.33,7-1.19,18.69T607,565.14q-1.92,13.88-5,28.38a204.11,204.11,0,0,1-7.62,26.88,108.86,108.86,0,0,1-10.25,21.32q-5.75,9-13,11.54-7.59,2.72-12.88.55a20.83,20.83,0,0,1-8.8-6.79,40.39,40.39,0,0,1-5.74-10.74q-2.21-6.1-3.81-11.62-3.35-12.6-6.39-27.75t-5.44-31.33q-2.4-16.19-4.57-32.86t-3.9-32.7l-7.95,2.85c-1.69.6-3.89,1.32-6.58,2.15a63.66,63.66,0,0,1-8.29,2,22.17,22.17,0,0,1-8.21-.11,12,12,0,0,1-6.72-3.88q-3.37-3.66,1.69-5.48a178.9,178.9,0,0,0,17.4-7.24q8.35-4,16.65-8.19-.81-7.81-1.47-15.3a91.24,91.24,0,0,1-.12-15q.6-15.23,5.67-17.05a33.4,33.4,0,0,1,8.12-1.28,60.86,60.86,0,0,1,11.13.28A71.77,71.77,0,0,1,551,435.62c3,.82,4.79,1.94,5.32,3.38a3.09,3.09,0,0,1-.44,2.18,3.12,3.12,0,0,0-.28.91A3.21,3.21,0,0,1,555.33,443Z" transform="translate(-23 -122.99)"/><path d="M620.59,616.09a316.72,316.72,0,0,1-6.9-31.42q-2.91-17-4.73-34.43t-2.48-34.42a287.6,287.6,0,0,1,.44-32q.12-5.31,3.37-6.48a21.67,21.67,0,0,1,6.36-1.06,57.88,57.88,0,0,1,7.85.24,50.9,50.9,0,0,1,7.39,1.21q3.36.82,5.69,1.61c2.45.75,3.45,2.36,3,4.82a40.27,40.27,0,0,0-.74,7q-.37,14.75.45,31.08t2.55,32.37q.91-12.09,2.85-25.37t4.66-26a241.66,241.66,0,0,1,6.29-23.76,94.29,94.29,0,0,1,8.12-18.73,9.88,9.88,0,0,1,6-5,21.3,21.3,0,0,1,4.6-.83,66.16,66.16,0,0,1,7.05-.29,58,58,0,0,1,7.55.54,23.28,23.28,0,0,1,6.61,1.9q4.92,2.3,4.46,5.51a16,16,0,0,1-2.58,6.4,49.91,49.91,0,0,0-6.76,24.74q-.23,13.47,2.44,23.07,2.11,7,5.4,9.23t6.17,1.24q5.77-2.07,9.52-8.68a68.53,68.53,0,0,0,6.09-14.76q2.36-8.14,3.86-16.4t2.47-13.46a4.93,4.93,0,0,1,2.59-3.57,5.84,5.84,0,0,1,3.94-.39,5.5,5.5,0,0,1,3.21,2.09,5.59,5.59,0,0,1,.9,4.15q-1.08,6.07-2.87,14.62t-4.5,17.44a123.84,123.84,0,0,1-6.53,16.94,34,34,0,0,1-9.54,12.55,20.89,20.89,0,0,1-10.42,4.54,40.92,40.92,0,0,1-13.07,0,36.7,36.7,0,0,1-12.64-4.41,21.49,21.49,0,0,1-8.86-9.21q-3.72-8-4.44-20.12a136.62,136.62,0,0,1,.26-21.81c.12-1.93,0-2.77-.3-2.52a5.11,5.11,0,0,0-1.05,2.19A201.09,201.09,0,0,0,656,519.22q-3.42,19.29-5,38.53a341,341,0,0,0-1.19,36.14q.4,16.9,2.82,25.78c.7,1.92.68,3.2,0,3.86a8.16,8.16,0,0,1-2.88,1.64,20.76,20.76,0,0,1-7.82,1,36.73,36.73,0,0,1-8.92-1.48,29.83,29.83,0,0,1-7.8-3.5A10.45,10.45,0,0,1,620.59,616.09Z" transform="translate(-23 -122.99)"/><path d="M751.64,427.56a21.85,21.85,0,0,1,12.68-6.16,33.66,33.66,0,0,1,14.44.92,49.94,49.94,0,0,1,16.9-3,50.53,50.53,0,0,1,15.74,2.28,35.79,35.79,0,0,1,12.52,6.88,25.35,25.35,0,0,1,7.55,10.69,129.79,129.79,0,0,1,6.42,26.12,149.89,149.89,0,0,1,1.34,27.92,151.21,151.21,0,0,0,13-31.23,139.58,139.58,0,0,0,5.5-33.82,5.13,5.13,0,0,1,1.92-3.73,5.74,5.74,0,0,1,3.68-1.12,5.44,5.44,0,0,1,3.63,1.55,5.3,5.3,0,0,1,1.61,3.88q-2.2,49.1-32.18,87a104.85,104.85,0,0,1-14,35.66q-9.9,15.52-26.18,21.34a37.84,37.84,0,0,1-19.11,2,45.58,45.58,0,0,1-17-6.3A56.42,56.42,0,0,1,746.7,557a45.1,45.1,0,0,1-8.31-13.87,131.44,131.44,0,0,1-6.73-29.25A163.57,163.57,0,0,1,731,482a114.22,114.22,0,0,1,6.26-30A71.34,71.34,0,0,1,751.64,427.56ZM779.8,550.2a12.64,12.64,0,0,1,3.36-2,89.64,89.64,0,0,0,9.84-5.55q3.94-2.62,9.44-6.63a109.83,109.83,0,0,0,3-19.75,169.48,169.48,0,0,0,.12-22.77,201.11,201.11,0,0,0-2.68-22.59,119.53,119.53,0,0,0-5.1-19.68q-3.26-9-7.19-13t-8.12-3.79c-2.79.18-5.5,1.56-8.11,4.11a30.49,30.49,0,0,0-6.67,10.91,90.45,90.45,0,0,0-5.63,26.17,136,136,0,0,0,.84,29.32,130.09,130.09,0,0,0,6.49,26.9Q773.94,544.17,779.8,550.2Z" transform="translate(-23 -122.99)"/><path class="cls-5" d="M333.53,636A424.92,424.92,0,0,0,386,682.16a414.17,414.17,0,0,0,51.83,33,25.26,25.26,0,0,0,3.56,1.36c1.06.29,2.33.59,3.8.87.89.22,1.43.57,1.6,1.05q1.14,2-.57,6.3a60.46,60.46,0,0,1-4.83,9.23,88.32,88.32,0,0,1-6.64,9.28q-3.56,4.31-6,5.58-3.22,2.37-15.33-5.07a385.18,385.18,0,0,1-63.63-48.06,644.89,644.89,0,0,1-54.29-57.24q.42,28.2,2.16,55.52t4.72,50.15q.6,5.05-5.19,7.12a24.84,24.84,0,0,1-7.93,1.22,44.47,44.47,0,0,1-9.08-.8,27.45,27.45,0,0,1-8-2.83,9.3,9.3,0,0,1-4.61-4.83A328.32,328.32,0,0,1,257,706.1q-5.24-22.85-9.43-48.49t-7.18-51.33q-3-25.68-4-46.58a269.72,269.72,0,0,1,.09-34.68q1.13-13.77,4.74-15.07a34,34,0,0,1,8.55-1.23,104.23,104.23,0,0,1,11.86,0,68.63,68.63,0,0,1,10.74,1.43q4.89,1.09,5.67,3.25a2.56,2.56,0,0,1-.07,2.05c-.53,1.55-1,2.87-1.42,4a11.22,11.22,0,0,0-.7,3.7q-1.81,10.8-1.88,28.07t1.4,37.64q1.47,20.38,3.95,42.42t5.78,42.38q-1.38-26.29-1.28-52.51t1.65-52.33a275,275,0,0,1,4.66-36.17,168.12,168.12,0,0,1,8.35-29.36,43.38,43.38,0,0,1,10-15.16,38.9,38.9,0,0,1,13.95-8.85q15.91-5.7,28.08,1.9T369.82,504q7.17,15.24,9.23,35.56A135.69,135.69,0,0,1,377.43,579a96.84,96.84,0,0,1-13.78,34.68,52.81,52.81,0,0,1-27.1,21.64A10.16,10.16,0,0,1,333.53,636Zm-37.89-12a35.64,35.64,0,0,1,11-3.51,30.72,30.72,0,0,1,14,1.49q10.48-3.75,16.3-14.79A77.1,77.1,0,0,0,344.78,582a126,126,0,0,0,.59-29.33,133.23,133.23,0,0,0-5.19-27.26q-3.78-12.09-9.55-19T318,502q-8.33,3-13.71,20.79t-7.22,46.56Q296.31,583,296,596.76T295.64,624Z" transform="translate(-23 -122.99)"/><path class="cls-5" d="M484.32,684.33q-16.29,5.82-28.87,3.22a42.78,42.78,0,0,1-21.31-10.84,62,62,0,0,1-14.2-21.1,101.24,101.24,0,0,1-7.29-27.42,155.71,155.71,0,0,1-.79-29.75,112.81,112.81,0,0,1,5.34-28.09,82.64,82.64,0,0,1,11.26-22.49q6.94-9.58,16.71-13.08,5.06-1.81,12.86-1.16a55.41,55.41,0,0,1,15.42,3.62,57.61,57.61,0,0,1,13.81,7.64q6.19,4.7,8.28,10.43a47.12,47.12,0,0,1,2,25.68,74.7,74.7,0,0,1-9.8,24.81,86,86,0,0,1-17.32,20.4,66,66,0,0,1-20.62,12.46q4.49,14.63,13,22.93t21.2,3.78q10.84-3.89,17.64-17.27a126,126,0,0,0,10.51-30.75,260.13,260.13,0,0,0,5-35.69q1.32-18.31,1.59-32.22a4.06,4.06,0,0,1,1.74-3.67,5.63,5.63,0,0,1,3.68-1.11,6.46,6.46,0,0,1,3.62,1.54,4.13,4.13,0,0,1,1.44,3.95q-.26,15.12-1.5,35.85a253.65,253.65,0,0,1-5.82,40.84,134.57,134.57,0,0,1-13.48,36.07Q499.52,678.89,484.32,684.33ZM453.71,556.07a48.23,48.23,0,0,0-6.33,14.64,107.58,107.58,0,0,0-3.19,18.8,128.87,128.87,0,0,0-.05,20.71,133,133,0,0,0,3,20Q454.35,627.68,460,620a58.71,58.71,0,0,0,8.63-17.9,73.11,73.11,0,0,0,2.87-21.93,68.53,68.53,0,0,0-4.07-22.49c-1.39-3.82-3.55-5.83-6.48-6S455.58,553,453.71,556.07Z" transform="translate(-23 -122.99)"/><path class="cls-5" d="M555.33,443a27.51,27.51,0,0,0-1.4,5.16,23.92,23.92,0,0,0-.18,5.14c0,2.18,0,4.21,0,6.1a57.12,57.12,0,0,0,.33,6,146,146,0,0,1,16.24-4.8c5.29-1.21,9.43-1.41,12.46-.6a5.36,5.36,0,0,1,2.41,1.58,19.59,19.59,0,0,1,2.94,3.61c.93,1.43,1.77,2.82,2.54,4.16a24.77,24.77,0,0,1,1.66,3.47c.7,1.92.69,3.41,0,4.47l-1.09.39a64.56,64.56,0,0,0-18.42,2.73q-9.42,2.76-17.74,5.74,1,17.49,2.83,36.53T562,559.94q2.34,18.24,4.86,34.79T572.38,624q1.49,6.38,3.08,6.81t4.14-4.93a162.8,162.8,0,0,0,8.63-25.2q3.67-14.1,6.43-28.48t4.18-27.88a226.41,226.41,0,0,0,1.44-23.64,5.87,5.87,0,0,1,1.85-3.91,5,5,0,0,1,3.62-1.3,5.43,5.43,0,0,1,3.62,1.55A5.27,5.27,0,0,1,611,520.9q-.33,7-1.19,18.69T607,565.14q-1.92,13.88-5,28.38a204.11,204.11,0,0,1-7.62,26.88,108.86,108.86,0,0,1-10.25,21.32q-5.75,9-13,11.54-7.59,2.72-12.88.55a20.83,20.83,0,0,1-8.8-6.79,40.39,40.39,0,0,1-5.74-10.74q-2.21-6.1-3.81-11.62-3.35-12.6-6.39-27.75t-5.44-31.33q-2.4-16.19-4.57-32.86t-3.9-32.7l-7.95,2.85c-1.69.6-3.89,1.32-6.58,2.15a63.66,63.66,0,0,1-8.29,2,22.17,22.17,0,0,1-8.21-.11,12,12,0,0,1-6.72-3.88q-3.37-3.66,1.69-5.48a178.9,178.9,0,0,0,17.4-7.24q8.35-4,16.65-8.19-.81-7.81-1.47-15.3a91.24,91.24,0,0,1-.12-15q.6-15.23,5.67-17.05a33.4,33.4,0,0,1,8.12-1.28,60.86,60.86,0,0,1,11.13.28A71.77,71.77,0,0,1,551,435.62c3,.82,4.79,1.94,5.32,3.38a3.09,3.09,0,0,1-.44,2.18,3.12,3.12,0,0,0-.28.91A3.21,3.21,0,0,1,555.33,443Z" transform="translate(-23 -122.99)"/><path class="cls-5" d="M620.59,616.09a316.72,316.72,0,0,1-6.9-31.42q-2.91-17-4.73-34.43t-2.48-34.42a287.6,287.6,0,0,1,.44-32q.12-5.31,3.37-6.48a21.67,21.67,0,0,1,6.36-1.06,57.88,57.88,0,0,1,7.85.24,50.9,50.9,0,0,1,7.39,1.21q3.36.82,5.69,1.61c2.45.75,3.45,2.36,3,4.82a40.27,40.27,0,0,0-.74,7q-.37,14.75.45,31.08t2.55,32.37q.91-12.09,2.85-25.37t4.66-26a241.66,241.66,0,0,1,6.29-23.76,94.29,94.29,0,0,1,8.12-18.73,9.88,9.88,0,0,1,6-5,21.3,21.3,0,0,1,4.6-.83,66.16,66.16,0,0,1,7.05-.29,58,58,0,0,1,7.55.54,23.28,23.28,0,0,1,6.61,1.9q4.92,2.3,4.46,5.51a16,16,0,0,1-2.58,6.4,49.91,49.91,0,0,0-6.76,24.74q-.23,13.47,2.44,23.07,2.11,7,5.4,9.23t6.17,1.24q5.77-2.07,9.52-8.68a68.53,68.53,0,0,0,6.09-14.76q2.36-8.14,3.86-16.4t2.47-13.46a4.93,4.93,0,0,1,2.59-3.57,5.84,5.84,0,0,1,3.94-.39,5.5,5.5,0,0,1,3.21,2.09,5.59,5.59,0,0,1,.9,4.15q-1.08,6.07-2.87,14.62t-4.5,17.44a123.84,123.84,0,0,1-6.53,16.94,34,34,0,0,1-9.54,12.55,20.89,20.89,0,0,1-10.42,4.54,40.92,40.92,0,0,1-13.07,0,36.7,36.7,0,0,1-12.64-4.41,21.49,21.49,0,0,1-8.86-9.21q-3.72-8-4.44-20.12a136.62,136.62,0,0,1,.26-21.81c.12-1.93,0-2.77-.3-2.52a5.11,5.11,0,0,0-1.05,2.19A201.09,201.09,0,0,0,656,519.22q-3.42,19.29-5,38.53a341,341,0,0,0-1.19,36.14q.4,16.9,2.82,25.78c.7,1.92.68,3.2,0,3.86a8.16,8.16,0,0,1-2.88,1.64,20.76,20.76,0,0,1-7.82,1,36.73,36.73,0,0,1-8.92-1.48,29.83,29.83,0,0,1-7.8-3.5A10.45,10.45,0,0,1,620.59,616.09Z" transform="translate(-23 -122.99)"/><path class="cls-5" d="M751.64,427.56a21.85,21.85,0,0,1,12.68-6.16,33.66,33.66,0,0,1,14.44.92,49.94,49.94,0,0,1,16.9-3,50.53,50.53,0,0,1,15.74,2.28,35.79,35.79,0,0,1,12.52,6.88,25.35,25.35,0,0,1,7.55,10.69,129.79,129.79,0,0,1,6.42,26.12,149.89,149.89,0,0,1,1.34,27.92,151.21,151.21,0,0,0,13-31.23,139.58,139.58,0,0,0,5.5-33.82,5.13,5.13,0,0,1,1.92-3.73,5.74,5.74,0,0,1,3.68-1.12,5.44,5.44,0,0,1,3.63,1.55,5.3,5.3,0,0,1,1.61,3.88q-2.2,49.1-32.18,87a104.85,104.85,0,0,1-14,35.66q-9.9,15.52-26.18,21.34a37.84,37.84,0,0,1-19.11,2,45.58,45.58,0,0,1-17-6.3A56.42,56.42,0,0,1,746.7,557a45.1,45.1,0,0,1-8.31-13.87,131.44,131.44,0,0,1-6.73-29.25A163.57,163.57,0,0,1,731,482a114.22,114.22,0,0,1,6.26-30A71.34,71.34,0,0,1,751.64,427.56ZM779.8,550.2a12.64,12.64,0,0,1,3.36-2,89.64,89.64,0,0,0,9.84-5.55q3.94-2.62,9.44-6.63a109.83,109.83,0,0,0,3-19.75,169.48,169.48,0,0,0,.12-22.77,201.11,201.11,0,0,0-2.68-22.59,119.53,119.53,0,0,0-5.1-19.68q-3.26-9-7.19-13t-8.12-3.79c-2.79.18-5.5,1.56-8.11,4.11a30.49,30.49,0,0,0-6.67,10.91,90.45,90.45,0,0,0-5.63,26.17,136,136,0,0,0,.84,29.32,130.09,130.09,0,0,0,6.49,26.9Q773.94,544.17,779.8,550.2Z" transform="translate(-23 -122.99)"/><path d="M326.53,642A424.09,424.09,0,0,0,379,688.16a411.16,411.16,0,0,0,51.83,33,24.09,24.09,0,0,0,3.56,1.36c1.06.29,2.33.59,3.8.88.89.21,1.43.56,1.6,1.05.76,1.35.57,3.44-.57,6.29a60,60,0,0,1-4.83,9.23,88.32,88.32,0,0,1-6.64,9.28c-2.37,2.88-4.35,4.73-6,5.58q-3.22,2.37-15.33-5.07a385.12,385.12,0,0,1-63.63-48,645,645,0,0,1-54.29-57.25q.42,28.2,2.16,55.52t4.71,50.15q.62,5.05-5.18,7.12a24.56,24.56,0,0,1-7.93,1.22,44.47,44.47,0,0,1-9.08-.8,27.16,27.16,0,0,1-8-2.83,9.3,9.3,0,0,1-4.61-4.83A327.74,327.74,0,0,1,250,712.1q-5.24-22.85-9.43-48.49t-7.18-51.33q-3-25.68-4-46.58a269.55,269.55,0,0,1,.09-34.67q1.13-13.78,4.74-15.08a34,34,0,0,1,8.55-1.23,104.23,104.23,0,0,1,11.86,0,68.79,68.79,0,0,1,10.74,1.43q4.89,1.1,5.67,3.25a2.56,2.56,0,0,1-.07,2.05c-.53,1.55-1,2.87-1.42,4a11.27,11.27,0,0,0-.7,3.7q-1.81,10.8-1.88,28.07t1.4,37.65q1.47,20.37,3.95,42.42t5.78,42.37q-1.38-26.29-1.28-52.51t1.65-52.33a275,275,0,0,1,4.66-36.17,167.25,167.25,0,0,1,8.35-29.36,43.38,43.38,0,0,1,10-15.16,39,39,0,0,1,13.95-8.85q15.91-5.68,28.08,1.9T362.82,510q7.17,15.25,9.23,35.56A135.69,135.69,0,0,1,370.43,585a96.84,96.84,0,0,1-13.78,34.68,52.76,52.76,0,0,1-27.1,21.64A10.16,10.16,0,0,1,326.53,642Zm-37.89-12a35.38,35.38,0,0,1,11-3.52,30.72,30.72,0,0,1,14,1.49q10.48-3.75,16.3-14.78a77.23,77.23,0,0,0,7.82-25.2,126,126,0,0,0,.59-29.33,133.37,133.37,0,0,0-5.19-27.26q-3.78-12.09-9.55-19T311,508q-8.33,3-13.71,20.79t-7.22,46.56Q289.31,589,289,602.77T288.64,630Z" transform="translate(-23 -122.99)"/><path d="M477.32,690.33q-16.29,5.82-28.87,3.22a42.78,42.78,0,0,1-21.31-10.84,62.06,62.06,0,0,1-14.2-21.09,101.31,101.31,0,0,1-7.29-27.43,154.88,154.88,0,0,1-.79-29.75,112.81,112.81,0,0,1,5.34-28.09,82.64,82.64,0,0,1,11.26-22.49q6.94-9.58,16.71-13.08,5.06-1.81,12.86-1.16a55.76,55.76,0,0,1,15.42,3.62,57.61,57.61,0,0,1,13.81,7.64q6.19,4.7,8.28,10.43a47.13,47.13,0,0,1,2,25.68,74.7,74.7,0,0,1-9.8,24.81,86.21,86.21,0,0,1-17.32,20.41,66.18,66.18,0,0,1-20.62,12.45q4.49,14.63,13,22.93t21.2,3.78q10.86-3.87,17.64-17.27a126.07,126.07,0,0,0,10.51-30.74,260.34,260.34,0,0,0,5-35.69q1.32-18.33,1.59-32.23a4,4,0,0,1,1.74-3.66,5.64,5.64,0,0,1,3.68-1.12,6.48,6.48,0,0,1,3.62,1.55,4.11,4.11,0,0,1,1.44,3.95q-.26,15.11-1.5,35.84a254.61,254.61,0,0,1-5.82,40.84,134.85,134.85,0,0,1-13.48,36.08Q492.52,684.9,477.32,690.33ZM446.71,562.07a48.19,48.19,0,0,0-6.33,14.65,107.3,107.3,0,0,0-3.19,18.79,127.84,127.84,0,0,0-.05,20.72,133.38,133.38,0,0,0,3,20q7.23-2.6,12.83-10.28a58.49,58.49,0,0,0,8.63-17.9,73.07,73.07,0,0,0,2.87-21.93,68.42,68.42,0,0,0-4.07-22.48q-2.08-5.74-6.48-6T446.71,562.07Z" transform="translate(-23 -122.99)"/><path d="M548.33,449a27.51,27.51,0,0,0-1.4,5.16,23.94,23.94,0,0,0-.18,5.14c0,2.18,0,4.21,0,6.1a56.83,56.83,0,0,0,.33,6,143.77,143.77,0,0,1,16.24-4.79c5.28-1.22,9.43-1.41,12.46-.61a5.36,5.36,0,0,1,2.41,1.58,19.93,19.93,0,0,1,2.94,3.61c.93,1.43,1.77,2.82,2.54,4.17a24.73,24.73,0,0,1,1.66,3.46c.7,1.92.69,3.41,0,4.47l-1.09.39a64.56,64.56,0,0,0-18.42,2.73q-9.42,2.76-17.74,5.74,1,17.5,2.83,36.53T555,565.94q2.32,18.25,4.86,34.79T565.38,630q1.49,6.36,3.08,6.81c1.06.3,2.44-1.35,4.14-4.93a163.31,163.31,0,0,0,8.63-25.21q3.67-14.1,6.43-28.48t4.18-27.88a226.25,226.25,0,0,0,1.44-23.64,5.87,5.87,0,0,1,1.85-3.91,5,5,0,0,1,3.62-1.3,5.48,5.48,0,0,1,3.62,1.55A5.29,5.29,0,0,1,604,526.9q-.33,7-1.19,18.69T600,571.14q-1.92,13.89-5,28.39a202.45,202.45,0,0,1-7.61,26.87,108.59,108.59,0,0,1-10.25,21.32q-5.75,9-13,11.54-7.59,2.73-12.88.55a20.77,20.77,0,0,1-8.8-6.79,40.2,40.2,0,0,1-5.74-10.73q-2.21-6.1-3.81-11.63-3.35-12.58-6.39-27.74t-5.44-31.34q-2.4-16.19-4.57-32.86t-3.9-32.7l-7.95,2.85q-2.55.92-6.58,2.15a62.07,62.07,0,0,1-8.29,2,22.17,22.17,0,0,1-8.21-.1,12,12,0,0,1-6.72-3.89q-3.37-3.66,1.69-5.47a184,184,0,0,0,17.4-7.24q8.35-4,16.65-8.19-.81-7.83-1.47-15.31a91.23,91.23,0,0,1-.12-15q.6-15.23,5.67-17a32.81,32.81,0,0,1,8.12-1.29,61.77,61.77,0,0,1,11.13.28A71.77,71.77,0,0,1,544,441.62c3,.82,4.79,1.94,5.32,3.38a3.09,3.09,0,0,1-.44,2.18,3.08,3.08,0,0,0-.28.92A3.24,3.24,0,0,1,548.33,449Z" transform="translate(-23 -122.99)"/><path d="M613.59,622.09a316.72,316.72,0,0,1-6.9-31.42q-2.91-17-4.73-34.43t-2.48-34.42a287.64,287.64,0,0,1,.44-32c.07-3.54,1.2-5.7,3.37-6.48a22,22,0,0,1,6.36-1.06,57.88,57.88,0,0,1,7.85.24,52.31,52.31,0,0,1,7.39,1.21q3.36.82,5.69,1.61c2.45.75,3.45,2.36,3,4.83a40.26,40.26,0,0,0-.74,7q-.37,14.75.45,31.09t2.55,32.36q.91-12.09,2.85-25.37t4.66-26a241.66,241.66,0,0,1,6.29-23.76,94.55,94.55,0,0,1,8.12-18.73,9.83,9.83,0,0,1,6-5,20.57,20.57,0,0,1,4.6-.84,68.82,68.82,0,0,1,7-.29,56.26,56.26,0,0,1,7.56.55,23,23,0,0,1,6.61,1.89q4.92,2.3,4.46,5.51a15.83,15.83,0,0,1-2.59,6.4,50,50,0,0,0-6.75,24.74q-.23,13.47,2.44,23.07,2.11,7,5.4,9.23c2.18,1.52,4.24,1.94,6.17,1.24q5.77-2.07,9.52-8.68a68.53,68.53,0,0,0,6.09-14.76,168,168,0,0,0,3.86-16.4q1.5-8.24,2.47-13.46a4.89,4.89,0,0,1,2.59-3.56,5.79,5.79,0,0,1,3.94-.4,5.5,5.5,0,0,1,3.21,2.09,5.61,5.61,0,0,1,.9,4.15q-1.08,6.07-2.87,14.62t-4.51,17.44a123.15,123.15,0,0,1-6.52,17,34.12,34.12,0,0,1-9.54,12.54,20.8,20.8,0,0,1-10.42,4.54,40.64,40.64,0,0,1-13.07,0,36.5,36.5,0,0,1-12.64-4.41,21.52,21.52,0,0,1-8.86-9.2q-3.72-8-4.44-20.13a136.47,136.47,0,0,1,.26-21.8c.12-1.94,0-2.78-.3-2.53a5.11,5.11,0,0,0-1.05,2.2,200.94,200.94,0,0,0-8.32,32.8q-3.42,19.29-5,38.53a341,341,0,0,0-1.19,36.14q.4,16.9,2.82,25.78c.7,1.92.68,3.21,0,3.87a8.32,8.32,0,0,1-2.88,1.64,20.78,20.78,0,0,1-7.82,1,36.73,36.73,0,0,1-8.92-1.48,29.83,29.83,0,0,1-7.8-3.5A10.41,10.41,0,0,1,613.59,622.09Z" transform="translate(-23 -122.99)"/><path d="M744.64,433.56a21.91,21.91,0,0,1,12.68-6.16,33.67,33.67,0,0,1,14.44.92,52,52,0,0,1,32.64-.72,35.81,35.81,0,0,1,12.52,6.89,25.26,25.26,0,0,1,7.55,10.68,130,130,0,0,1,6.42,26.12,149.1,149.1,0,0,1,1.34,27.93,151.44,151.44,0,0,0,13-31.23,139.74,139.74,0,0,0,5.5-33.83,5.13,5.13,0,0,1,1.92-3.73,5.74,5.74,0,0,1,3.68-1.12,5.48,5.48,0,0,1,3.63,1.55,5.32,5.32,0,0,1,1.61,3.88q-2.2,49.1-32.18,87a104.85,104.85,0,0,1-14,35.66q-9.9,15.52-26.18,21.34a37.84,37.84,0,0,1-19.11,2,45.58,45.58,0,0,1-17-6.3A56.42,56.42,0,0,1,739.7,563a45.1,45.1,0,0,1-8.31-13.87,131.44,131.44,0,0,1-6.73-29.25A162.79,162.79,0,0,1,724,488a114.22,114.22,0,0,1,6.26-30A71.44,71.44,0,0,1,744.64,433.56ZM772.8,556.2a12.64,12.64,0,0,1,3.36-2,89.64,89.64,0,0,0,9.84-5.55q3.94-2.62,9.44-6.62a111,111,0,0,0,3-19.76,169.47,169.47,0,0,0,.12-22.77,200.65,200.65,0,0,0-2.68-22.58,119.39,119.39,0,0,0-5.1-19.69q-3.26-9-7.19-13t-8.12-3.79q-4.18.28-8.11,4.12a30.4,30.4,0,0,0-6.67,10.91,90.38,90.38,0,0,0-5.63,26.16,136.08,136.08,0,0,0,.84,29.33,130.41,130.41,0,0,0,6.49,26.9Q766.94,550.18,772.8,556.2Z" transform="translate(-23 -122.99)"/><path d="M628.75,650.28a4.08,4.08,0,0,1,3.4.43,16.72,16.72,0,0,1,3.56,2.67,21,21,0,0,1,3,3.62,12.31,12.31,0,0,1,1.73,3.74c.39,1.46-.21,2.47-1.79,3a167.61,167.61,0,0,0-19.18,6.73q-9.68,4-18.81,8.33,4.4.42,4.64,2a21.76,21.76,0,0,1-.2,5.18c-.18,1.95-.31,4.1-.41,6.45s-.07,5,.09,7.8q.51,12.21,2.08,26.12T610.49,753q2,12.76,4.16,23a114.28,114.28,0,0,0,4,15.43,2.16,2.16,0,0,1-1.52,3.14,13.32,13.32,0,0,1-4.34.65,24.55,24.55,0,0,1-5-.43,15.18,15.18,0,0,1-4.36-1.51,5.08,5.08,0,0,1-2.52-2.6q-2-5.38-3.94-12.75t-3.75-15.86q-1.81-8.49-3.37-17.84t-2.72-18.51Q585.83,716,585,706.4t-.78-19.62l-11.82,6.1q-5.25,2.72-9.51,5.08t-7.67,4.64a50.77,50.77,0,0,0-6.06,4.73,12,12,0,0,0-1.46,1.5c-.41.5-.8,1-1.19,1.61s-.74.62-.92.54c-.79.27-1.82-.2-3.09-1.42a39.82,39.82,0,0,1-3.83-4.31,47.48,47.48,0,0,1-3.45-5.09,15.3,15.3,0,0,1-1.83-4c-.35-1.75,1.89-4.14,6.74-7.14a197.05,197.05,0,0,1,21-12.46q11.16-5.76,22.58-10.53t22.92-8.69Q618.05,653.39,628.75,650.28Z" transform="translate(-23 -122.99)"/><path d="M655.12,695a12.08,12.08,0,0,1,6.93-3.3,18.74,18.74,0,0,1,7.89.49,28.07,28.07,0,0,1,9.23-1.61,28.62,28.62,0,0,1,8.61,1.22,20,20,0,0,1,6.84,3.69,13.63,13.63,0,0,1,4.13,5.73,68.22,68.22,0,0,1,3.5,14,78,78,0,0,1,.74,15,80.29,80.29,0,0,0,7.1-16.73,73.61,73.61,0,0,0,3-18.12,2.73,2.73,0,0,1,1-2,3.24,3.24,0,0,1,2-.6,3,3,0,0,1,2,.83,2.83,2.83,0,0,1,.88,2.08,78.14,78.14,0,0,1-17.59,46.61,55.5,55.5,0,0,1-7.67,19.11,27.71,27.71,0,0,1-14.31,11.43,21,21,0,0,1-10.44,1,25,25,0,0,1-9.29-3.37,30.58,30.58,0,0,1-7.3-6.14,23.94,23.94,0,0,1-4.54-7.43,68.52,68.52,0,0,1-3.68-15.67,85.22,85.22,0,0,1-.39-17A60.72,60.72,0,0,1,647.23,708,38.1,38.1,0,0,1,655.12,695Zm15.39,65.7a6.54,6.54,0,0,1,1.83-1.08,50.7,50.7,0,0,0,5.38-3q2.16-1.41,5.16-3.56a58,58,0,0,0,1.67-10.58,88.62,88.62,0,0,0,.06-12.2,104.4,104.4,0,0,0-1.46-12.1,63,63,0,0,0-2.79-10.54,19.55,19.55,0,0,0-3.93-7,5.67,5.67,0,0,0-4.43-2,7.11,7.11,0,0,0-4.44,2.2,16.26,16.26,0,0,0-3.64,5.85,47.52,47.52,0,0,0-3.08,14,71.63,71.63,0,0,0,.46,15.71,68.44,68.44,0,0,0,3.55,14.41Q667.31,757.43,670.51,760.65Z" transform="translate(-23 -122.99)"/><path d="M758.08,723.85a11,11,0,0,1-.44-1.48,13.28,13.28,0,0,0-.5-1.67,99.09,99.09,0,0,1-1.55,10,44.93,44.93,0,0,1-2.77,8.8,27.57,27.57,0,0,1-4.35,7,14.28,14.28,0,0,1-6.15,4.22q-7.52,2.64-12.52-.94a22.85,22.85,0,0,1-7.68-9.59,81.29,81.29,0,0,1-5-17.25,95.7,95.7,0,0,1-1.61-19.44,69.77,69.77,0,0,1,2.83-18.6,37.63,37.63,0,0,1,8.2-14.94,9.64,9.64,0,0,1,4.48-3,18.43,18.43,0,0,1,5.4-.8,38.38,38.38,0,0,1,5.63.41c1.89.28,3.68.49,5.37.62q-1.49-11.22-2.46-21.42t-1-18.22a102.91,102.91,0,0,1,.54-13q.6-5,2.39-5.62a18.57,18.57,0,0,1,4.67-.66,65.63,65.63,0,0,1,6.58,0,34.81,34.81,0,0,1,6,.73c1.78.39,2.81,1,3.1,1.74a.93.93,0,0,1-.24,1.17,9.07,9.07,0,0,1-.68,2.08,4.88,4.88,0,0,0-.48,2q-1.34,7.86-.83,21.6T767,666.89q1.65,15.63,4,30.77t4.76,25.83q1.56,6.63,3.95,1A62.6,62.6,0,0,0,784,711.17q1.51-7.38,2.42-14.87t1.21-14.55q.28-7.07.28-12.5a3.12,3.12,0,0,1,1-2.09,2.78,2.78,0,0,1,2-.7,3,3,0,0,1,2,.83,2.84,2.84,0,0,1,.89,2.08q-.18,3.76-.36,9.91t-.83,13.44q-.65,7.31-1.85,14.9a96.4,96.4,0,0,1-3.28,14.08,48,48,0,0,1-5.1,11.25,14.34,14.34,0,0,1-7.2,6.22c-2.76,1-5.11,1.07-7,.29a11.3,11.3,0,0,1-4.82-3.64,21.4,21.4,0,0,1-3.13-5.75Q758.95,726.8,758.08,723.85Zm-15.29-51q-4.95,1.73-7.15,8.16a50.24,50.24,0,0,0-2.42,14.87,120.07,120.07,0,0,0,.83,17.32,110.4,110.4,0,0,0,2.81,15.43,19.44,19.44,0,0,0,3.58,7.55c1.41,1.61,2.84,2.15,4.29,1.65q3.36-1.18,5-8.73a87,87,0,0,0,2.07-14.31q.55-8.13.5-16.16-1.08-5.92-2.1-12t-2-12.25Q745.76,671.86,742.79,672.9Z" transform="translate(-23 -122.99)"/><path d="M800.83,643.84a12.1,12.1,0,0,1,6.94-3.3,18.9,18.9,0,0,1,7.89.5,27.81,27.81,0,0,1,9.23-1.61,28.4,28.4,0,0,1,8.61,1.22,19.67,19.67,0,0,1,6.83,3.69,13.54,13.54,0,0,1,4.13,5.73,68.06,68.06,0,0,1,3.51,14,78.79,78.79,0,0,1,.74,15,80.49,80.49,0,0,0,7.09-16.73,73.69,73.69,0,0,0,3-18.12,2.72,2.72,0,0,1,1.05-2,3.16,3.16,0,0,1,2-.6,3,3,0,0,1,2,.83,2.82,2.82,0,0,1,.89,2.08,78.17,78.17,0,0,1-17.6,46.61,55.25,55.25,0,0,1-7.67,19.1,27.7,27.7,0,0,1-14.3,11.44,21.27,21.27,0,0,1-10.45,1,25.42,25.42,0,0,1-9.29-3.37,31.21,31.21,0,0,1-7.3-6.14,24,24,0,0,1-4.54-7.43,69.84,69.84,0,0,1-3.68-15.67,86,86,0,0,1-.38-17A59.94,59.94,0,0,1,793,656.94,38.06,38.06,0,0,1,800.83,643.84Zm15.39,65.7a7.27,7.27,0,0,1,1.84-1.08,49.92,49.92,0,0,0,5.38-3c1.44-.94,3.15-2.12,5.16-3.55a58.32,58.32,0,0,0,1.66-10.59,90.07,90.07,0,0,0,.07-12.19,103.88,103.88,0,0,0-1.47-12.1,62.2,62.2,0,0,0-2.78-10.55,20,20,0,0,0-3.93-7,5.71,5.71,0,0,0-4.44-2,7.08,7.08,0,0,0-4.43,2.21,16.31,16.31,0,0,0-3.65,5.84,47.6,47.6,0,0,0-3.07,14,71,71,0,0,0,.45,15.71,69.22,69.22,0,0,0,3.55,14.41Q813,706.31,816.22,709.54Z" transform="translate(-23 -122.99)"/><path class="cls-5" d="M628.75,650.28a4.08,4.08,0,0,1,3.4.43,16.72,16.72,0,0,1,3.56,2.67,21,21,0,0,1,3,3.62,12.31,12.31,0,0,1,1.73,3.74c.39,1.46-.21,2.47-1.79,3a167.61,167.61,0,0,0-19.18,6.73q-9.68,4-18.81,8.33,4.4.42,4.64,2a21.76,21.76,0,0,1-.2,5.18c-.18,1.95-.31,4.1-.41,6.45s-.07,5,.09,7.8q.51,12.21,2.08,26.12T610.49,753q2,12.76,4.16,23a114.28,114.28,0,0,0,4,15.43,2.16,2.16,0,0,1-1.52,3.14,13.32,13.32,0,0,1-4.34.65,24.55,24.55,0,0,1-5-.43,15.18,15.18,0,0,1-4.36-1.51,5.08,5.08,0,0,1-2.52-2.6q-2-5.38-3.94-12.75t-3.75-15.86q-1.81-8.49-3.37-17.84t-2.72-18.51Q585.83,716,585,706.4t-.78-19.62l-11.82,6.1q-5.25,2.72-9.51,5.08t-7.67,4.64a50.77,50.77,0,0,0-6.06,4.73,12,12,0,0,0-1.46,1.5c-.41.5-.8,1-1.19,1.61s-.74.62-.92.54c-.79.27-1.82-.2-3.09-1.42a39.82,39.82,0,0,1-3.83-4.31,47.48,47.48,0,0,1-3.45-5.09,15.3,15.3,0,0,1-1.83-4c-.35-1.75,1.89-4.14,6.74-7.14a197.05,197.05,0,0,1,21-12.46q11.16-5.76,22.58-10.53t22.92-8.69Q618.05,653.39,628.75,650.28Z" transform="translate(-23 -122.99)"/><path class="cls-5" d="M655.12,695a12.08,12.08,0,0,1,6.93-3.3,18.74,18.74,0,0,1,7.89.49,28.07,28.07,0,0,1,9.23-1.61,28.62,28.62,0,0,1,8.61,1.22,20,20,0,0,1,6.84,3.69,13.63,13.63,0,0,1,4.13,5.73,68.22,68.22,0,0,1,3.5,14,78,78,0,0,1,.74,15,80.29,80.29,0,0,0,7.1-16.73,73.61,73.61,0,0,0,3-18.12,2.73,2.73,0,0,1,1-2,3.24,3.24,0,0,1,2-.6,3,3,0,0,1,2,.83,2.83,2.83,0,0,1,.88,2.08,78.14,78.14,0,0,1-17.59,46.61,55.5,55.5,0,0,1-7.67,19.11,27.71,27.71,0,0,1-14.31,11.43,21,21,0,0,1-10.44,1,25,25,0,0,1-9.29-3.37,30.58,30.58,0,0,1-7.3-6.14,23.94,23.94,0,0,1-4.54-7.43,68.52,68.52,0,0,1-3.68-15.67,85.22,85.22,0,0,1-.39-17A60.72,60.72,0,0,1,647.23,708,38.1,38.1,0,0,1,655.12,695Zm15.39,65.7a6.54,6.54,0,0,1,1.83-1.08,50.7,50.7,0,0,0,5.38-3q2.16-1.41,5.16-3.56a58,58,0,0,0,1.67-10.58,88.62,88.62,0,0,0,.06-12.2,104.4,104.4,0,0,0-1.46-12.1,63,63,0,0,0-2.79-10.54,19.55,19.55,0,0,0-3.93-7,5.67,5.67,0,0,0-4.43-2,7.11,7.11,0,0,0-4.44,2.2,16.26,16.26,0,0,0-3.64,5.85,47.52,47.52,0,0,0-3.08,14,71.63,71.63,0,0,0,.46,15.71,68.44,68.44,0,0,0,3.55,14.41Q667.31,757.43,670.51,760.65Z" transform="translate(-23 -122.99)"/><path class="cls-5" d="M758.08,723.85a11,11,0,0,1-.44-1.48,13.28,13.28,0,0,0-.5-1.67,99.09,99.09,0,0,1-1.55,10,44.93,44.93,0,0,1-2.77,8.8,27.57,27.57,0,0,1-4.35,7,14.28,14.28,0,0,1-6.15,4.22q-7.52,2.64-12.52-.94a22.85,22.85,0,0,1-7.68-9.59,81.29,81.29,0,0,1-5-17.25,95.7,95.7,0,0,1-1.61-19.44,69.77,69.77,0,0,1,2.83-18.6,37.63,37.63,0,0,1,8.2-14.94,9.64,9.64,0,0,1,4.48-3,18.43,18.43,0,0,1,5.4-.8,38.38,38.38,0,0,1,5.63.41c1.89.28,3.68.49,5.37.62q-1.49-11.22-2.46-21.42t-1-18.22a102.91,102.91,0,0,1,.54-13q.6-5,2.39-5.62a18.57,18.57,0,0,1,4.67-.66,65.63,65.63,0,0,1,6.58,0,34.81,34.81,0,0,1,6,.73c1.78.39,2.81,1,3.1,1.74a.93.93,0,0,1-.24,1.17,9.07,9.07,0,0,1-.68,2.08,4.88,4.88,0,0,0-.48,2q-1.34,7.86-.83,21.6T767,666.89q1.65,15.63,4,30.77t4.76,25.83q1.56,6.63,3.95,1A62.6,62.6,0,0,0,784,711.17q1.51-7.38,2.42-14.87t1.21-14.55q.28-7.07.28-12.5a3.12,3.12,0,0,1,1-2.09,2.78,2.78,0,0,1,2-.7,3,3,0,0,1,2,.83,2.84,2.84,0,0,1,.89,2.08q-.18,3.76-.36,9.91t-.83,13.44q-.65,7.31-1.85,14.9a96.4,96.4,0,0,1-3.28,14.08,48,48,0,0,1-5.1,11.25,14.34,14.34,0,0,1-7.2,6.22c-2.76,1-5.11,1.07-7,.29a11.3,11.3,0,0,1-4.82-3.64,21.4,21.4,0,0,1-3.13-5.75Q758.95,726.8,758.08,723.85Zm-15.29-51q-4.95,1.73-7.15,8.16a50.24,50.24,0,0,0-2.42,14.87,120.07,120.07,0,0,0,.83,17.32,110.4,110.4,0,0,0,2.81,15.43,19.44,19.44,0,0,0,3.58,7.55c1.41,1.61,2.84,2.15,4.29,1.65q3.36-1.18,5-8.73a87,87,0,0,0,2.07-14.31q.55-8.13.5-16.16-1.08-5.92-2.1-12t-2-12.25Q745.76,671.86,742.79,672.9Z" transform="translate(-23 -122.99)"/><path class="cls-5" d="M800.83,643.84a12.1,12.1,0,0,1,6.94-3.3,18.9,18.9,0,0,1,7.89.5,27.81,27.81,0,0,1,9.23-1.61,28.4,28.4,0,0,1,8.61,1.22,19.67,19.67,0,0,1,6.83,3.69,13.54,13.54,0,0,1,4.13,5.73,68.06,68.06,0,0,1,3.51,14,78.79,78.79,0,0,1,.74,15,80.49,80.49,0,0,0,7.09-16.73,73.69,73.69,0,0,0,3-18.12,2.72,2.72,0,0,1,1.05-2,3.16,3.16,0,0,1,2-.6,3,3,0,0,1,2,.83,2.82,2.82,0,0,1,.89,2.08,78.17,78.17,0,0,1-17.6,46.61,55.25,55.25,0,0,1-7.67,19.1,27.7,27.7,0,0,1-14.3,11.44,21.27,21.27,0,0,1-10.45,1,25.42,25.42,0,0,1-9.29-3.37,31.21,31.21,0,0,1-7.3-6.14,24,24,0,0,1-4.54-7.43,69.84,69.84,0,0,1-3.68-15.67,86,86,0,0,1-.38-17A59.94,59.94,0,0,1,793,656.94,38.06,38.06,0,0,1,800.83,643.84Zm15.39,65.7a7.27,7.27,0,0,1,1.84-1.08,49.92,49.92,0,0,0,5.38-3c1.44-.94,3.15-2.12,5.16-3.55a58.32,58.32,0,0,0,1.66-10.59,90.07,90.07,0,0,0,.07-12.19,103.88,103.88,0,0,0-1.47-12.1,62.2,62.2,0,0,0-2.78-10.55,20,20,0,0,0-3.93-7,5.71,5.71,0,0,0-4.44-2,7.08,7.08,0,0,0-4.43,2.21,16.31,16.31,0,0,0-3.65,5.84,47.6,47.6,0,0,0-3.07,14,71,71,0,0,0,.45,15.71,69.22,69.22,0,0,0,3.55,14.41Q813,706.31,816.22,709.54Z" transform="translate(-23 -122.99)"/><path d="M622.63,653.29a4.26,4.26,0,0,1,3.46.43,17.15,17.15,0,0,1,3.61,2.66,22.1,22.1,0,0,1,3.06,3.61,12.08,12.08,0,0,1,1.74,3.73q.6,2.19-1.81,3a172.26,172.26,0,0,0-19.47,6.71q-9.81,4-19.09,8.31,4.47.4,4.71,2a21.29,21.29,0,0,1-.21,5.17c-.17,1.93-.31,4.08-.41,6.42s-.06,4.94.1,7.77q.51,12.18,2.1,26t3.68,26.59q2.07,12.72,4.22,22.93a112,112,0,0,0,4.1,15.38q.87,2.31-1.54,3.13a13.66,13.66,0,0,1-4.4.65,25.22,25.22,0,0,1-5-.43,15.64,15.64,0,0,1-4.43-1.51,5.08,5.08,0,0,1-2.56-2.59q-2-5.36-4-12.71t-3.8-15.81q-1.85-8.46-3.42-17.78t-2.76-18.45q-1.4-9.71-2.28-19.27t-.79-19.55l-12,6.08q-5.34,2.7-9.66,5.06T548,705.45a52.12,52.12,0,0,0-6.16,4.72,12.91,12.91,0,0,0-1.48,1.48c-.41.51-.81,1-1.2,1.61s-.75.62-.94.54c-.8.28-1.84-.19-3.14-1.41a40.9,40.9,0,0,1-3.88-4.3,45.5,45.5,0,0,1-3.5-5.08,14.78,14.78,0,0,1-1.86-4q-.54-2.62,6.84-7.12a202.67,202.67,0,0,1,21.28-12.42q11.33-5.75,22.91-10.5t23.26-8.66Q611.79,656.38,622.63,653.29Z" transform="translate(-23 -122.99)"/><path d="M649.4,697.82a12.32,12.32,0,0,1,7-3.29,19.42,19.42,0,0,1,8,.49,29.89,29.89,0,0,1,18.11-.38,20.21,20.21,0,0,1,7,3.68,13.61,13.61,0,0,1,4.19,5.7,67.88,67.88,0,0,1,3.56,14,76.7,76.7,0,0,1,.74,14.91,79.09,79.09,0,0,0,7.21-16.67,72.34,72.34,0,0,0,3-18.07,2.67,2.67,0,0,1,1.06-2,3.32,3.32,0,0,1,2.05-.6,3.07,3.07,0,0,1,2,.83,2.78,2.78,0,0,1,.89,2.07,77.12,77.12,0,0,1-17.85,46.47,54.79,54.79,0,0,1-7.79,19,28,28,0,0,1-14.52,11.4,21.87,21.87,0,0,1-10.6,1,26,26,0,0,1-9.44-3.36,31.25,31.25,0,0,1-7.4-6.12,23.86,23.86,0,0,1-4.61-7.41,67.68,67.68,0,0,1-3.73-15.62,83.92,83.92,0,0,1-.4-17,59,59,0,0,1,3.48-16A37.8,37.8,0,0,1,649.4,697.82ZM665,763.31a7.13,7.13,0,0,1,1.86-1.07,51.86,51.86,0,0,0,5.46-3q2.19-1.41,5.24-3.54a56.12,56.12,0,0,0,1.69-10.56,86.48,86.48,0,0,0,.07-12.16A101.61,101.61,0,0,0,677.85,721,61.79,61.79,0,0,0,675,710.45a19.76,19.76,0,0,0-4-7,5.85,5.85,0,0,0-4.51-2,7.25,7.25,0,0,0-4.5,2.2,16.26,16.26,0,0,0-3.7,5.82,47,47,0,0,0-3.12,14,70,70,0,0,0,.46,15.66,68.13,68.13,0,0,0,3.6,14.36Q661.78,760.1,665,763.31Z" transform="translate(-23 -122.99)"/><path d="M753.91,726.63a10.5,10.5,0,0,1-.44-1.47,13.77,13.77,0,0,0-.52-1.67,93.11,93.11,0,0,1-1.57,10,43.34,43.34,0,0,1-2.81,8.77,27.35,27.35,0,0,1-4.42,6.94,14.56,14.56,0,0,1-6.23,4.21q-7.63,2.63-12.71-.93a23,23,0,0,1-7.8-9.56,80.1,80.1,0,0,1-5.13-17.2,93.74,93.74,0,0,1-1.63-19.38,68.29,68.29,0,0,1,2.87-18.55,37.29,37.29,0,0,1,8.33-14.89,9.72,9.72,0,0,1,4.55-3,18.87,18.87,0,0,1,5.48-.8,41,41,0,0,1,5.71.41c1.92.29,3.73.49,5.45.62q-1.5-11.19-2.5-21.36t-1.07-18.16a103.76,103.76,0,0,1,.55-13q.62-5,2.43-5.61a19.52,19.52,0,0,1,4.74-.66q3.33-.17,6.68,0a36.71,36.71,0,0,1,6,.73c1.81.39,2.86,1,3.15,1.73a.9.9,0,0,1-.24,1.17,8.61,8.61,0,0,1-.69,2.08,5,5,0,0,0-.49,2q-1.35,7.85-.84,21.53T763,669.85q1.68,15.58,4.08,30.68t4.84,25.75q1.58,6.6,4,1A60.59,60.59,0,0,0,780.21,714q1.53-7.35,2.46-14.82t1.22-14.51q.29-7,.29-12.46a3.1,3.1,0,0,1,1-2.08,2.86,2.86,0,0,1,2-.7,3.12,3.12,0,0,1,2,.83,2.79,2.79,0,0,1,.89,2.08c-.11,2.49-.23,5.79-.35,9.87s-.41,8.56-.85,13.4-1.07,9.8-1.88,14.85a94.46,94.46,0,0,1-3.33,14,47.1,47.1,0,0,1-5.18,11.21,14.44,14.44,0,0,1-7.3,6.2q-4.22,1.46-7.14.3a11.45,11.45,0,0,1-4.89-3.63,21.41,21.41,0,0,1-3.18-5.73Q754.79,729.57,753.91,726.63Zm-15.52-50.79q-5,1.73-7.25,8.13a49,49,0,0,0-2.46,14.83,116.44,116.44,0,0,0,.84,17.26,108.17,108.17,0,0,0,2.85,15.39A19.26,19.26,0,0,0,736,739c1.43,1.61,2.89,2.15,4.36,1.65,2.27-.79,4-3.68,5.11-8.7a85.1,85.1,0,0,0,2.11-14.27q.55-8.1.5-16.11c-.73-3.93-1.44-7.92-2.12-11.94s-1.36-8.1-2-12.21A5.08,5.08,0,0,0,738.39,675.84Z" transform="translate(-23 -122.99)"/><path d="M797.31,646.88a12.26,12.26,0,0,1,7-3.29,19.48,19.48,0,0,1,8,.49,28.61,28.61,0,0,1,9.37-1.6,29.46,29.46,0,0,1,8.74,1.21,20.07,20.07,0,0,1,6.94,3.68,13.47,13.47,0,0,1,4.19,5.71A67.24,67.24,0,0,1,845.15,667a77.5,77.5,0,0,1,.75,14.91,78.85,78.85,0,0,0,7.2-16.68,71.83,71.83,0,0,0,3.06-18.06,2.67,2.67,0,0,1,1.06-2,3.25,3.25,0,0,1,2-.6,3.07,3.07,0,0,1,2,.82,2.77,2.77,0,0,1,.9,2.08A77,77,0,0,1,844.31,694a54.75,54.75,0,0,1-7.78,19A28.09,28.09,0,0,1,822,724.42a21.85,21.85,0,0,1-10.6,1.05A26.12,26.12,0,0,1,802,722.1a31.23,31.23,0,0,1-7.41-6.11,24,24,0,0,1-4.6-7.41A67.8,67.8,0,0,1,786.22,693a84,84,0,0,1-.39-17,59.24,59.24,0,0,1,3.47-16A37.82,37.82,0,0,1,797.31,646.88Zm15.62,65.49a7.17,7.17,0,0,1,1.86-1.08,48.42,48.42,0,0,0,5.46-3c1.46-.94,3.21-2.11,5.24-3.54a56.69,56.69,0,0,0,1.69-10.55,88,88,0,0,0,.07-12.16A103.46,103.46,0,0,0,825.76,670a61.53,61.53,0,0,0-2.83-10.51,19.52,19.52,0,0,0-4-7,5.82,5.82,0,0,0-4.5-2,7.3,7.3,0,0,0-4.5,2.2,16.18,16.18,0,0,0-3.7,5.83,46.6,46.6,0,0,0-3.12,14,70,70,0,0,0,.46,15.66,67.47,67.47,0,0,0,3.6,14.37Q809.67,709.16,812.93,712.37Z" transform="translate(-23 -122.99)"/></svg>